<?xml version="1.0" encoding="utf-8"?>
<!-- Generator: Adobe Illustrator 20.1.0, SVG Export Plug-In . SVG Version: 6.00 Build 0)  -->
<svg version="1.1" id="Isolation_Mode" xmlns="http://www.w3.org/2000/svg" xmlns:xlink="http://www.w3.org/1999/xlink" x="0px"
	 y="0px" viewBox="0 0 234 145.5" style="enable-background:new 0 0 234 145.5;" xml:space="preserve">
<style type="text/css">
	.st0{fill:#000;}
	.st1{fill-rule:evenodd;clip-rule:evenodd;fill:#000;}
</style>
<path class="st0" d="M201.5,129l1.1,0.7c-0.3,0.4-0.6,0.7-1,0.9c-0.4,0.2-0.9,0.3-1.3,0.3c-0.7,0-1.3-0.2-1.7-0.7
	c-0.4-0.4-0.6-1.1-0.6-1.9c0-1.2,0.3-2.1,0.8-2.8c0.5-0.7,1.2-1.1,2.1-1.1c0.7,0,1.2,0.2,1.6,0.7c0.4,0.4,0.6,1,0.6,1.8
	c0,0.1,0,0.2,0,0.4c0,0.2,0,0.4,0,0.6l-3.7,0c0,0.1,0,0.2-0.1,0.3c0,0.1,0,0.2,0,0.2c0,0.4,0.1,0.8,0.3,1c0.2,0.2,0.4,0.3,0.8,0.3
	c0.2,0,0.5-0.1,0.7-0.2C201.2,129.4,201.4,129.2,201.5,129 M199.5,126.9l2.3,0c0,0,0-0.1,0-0.1c0,0,0-0.1,0-0.2
	c0-0.4-0.1-0.6-0.2-0.8c-0.2-0.2-0.4-0.3-0.7-0.3c-0.3,0-0.6,0.1-0.8,0.4C199.8,126.1,199.6,126.5,199.5,126.9z M196.1,128.8
	l1.1,0.8c-0.3,0.4-0.6,0.8-1,1c-0.4,0.2-0.8,0.4-1.3,0.4c-0.8,0-1.4-0.2-1.8-0.7c-0.4-0.5-0.6-1.1-0.6-1.9c0-0.6,0.1-1.1,0.3-1.7
	c0.2-0.5,0.5-1,0.8-1.3c0.3-0.3,0.5-0.5,0.9-0.6c0.3-0.1,0.7-0.2,1-0.2c0.6,0,1.1,0.2,1.5,0.5c0.4,0.3,0.6,0.8,0.8,1.4l-1.2,0.3
	c-0.1-0.3-0.2-0.6-0.3-0.8c-0.2-0.2-0.4-0.2-0.7-0.2c-0.2,0-0.4,0.1-0.6,0.2c-0.2,0.1-0.3,0.3-0.5,0.5c-0.2,0.3-0.3,0.6-0.4,1.1
	c-0.1,0.4-0.2,0.8-0.2,1.1c0,0.4,0.1,0.7,0.2,0.9c0.2,0.2,0.4,0.3,0.6,0.3c0.3,0,0.6-0.1,0.8-0.2
	C195.7,129.3,195.9,129.1,196.1,128.8z M189.2,130.8l1.4-6.2h1.4l-1.4,6.2H189.2z M190.8,123.4l0.3-1.3h1.4l-0.3,1.3H190.8z
	 M185.2,130.8l-0.8-6.2h1.4l0.3,4.3l1.7-4.3h1.5l-2.7,6.2H185.2z M179.8,130.8l1.4-6.2h1.4l-0.2,1c0.2-0.4,0.4-0.6,0.7-0.8
	c0.2-0.2,0.5-0.3,0.8-0.3c0.1,0,0.2,0,0.3,0c0,0,0.1,0,0.1,0l-0.3,1.5c0,0,0,0-0.1,0c0,0-0.1,0-0.1,0c-0.3,0-0.6,0.1-0.8,0.2
	c-0.2,0.2-0.5,0.4-0.7,0.8l-0.8,3.8H179.8z M177.9,129l1.1,0.7c-0.3,0.4-0.6,0.7-1,0.9c-0.4,0.2-0.9,0.3-1.3,0.3
	c-0.7,0-1.3-0.2-1.7-0.7c-0.4-0.4-0.6-1.1-0.6-1.9c0-1.2,0.3-2.1,0.8-2.8c0.5-0.7,1.2-1.1,2.1-1.1c0.7,0,1.2,0.2,1.6,0.7
	c0.4,0.4,0.6,1,0.6,1.8c0,0.1,0,0.2,0,0.4c0,0.2,0,0.4,0,0.6l-3.7,0c0,0.1,0,0.2-0.1,0.3c0,0.1,0,0.2,0,0.2c0,0.4,0.1,0.8,0.3,1
	c0.2,0.2,0.4,0.3,0.8,0.3c0.2,0,0.5-0.1,0.7-0.2C177.5,129.4,177.7,129.2,177.9,129z M175.8,126.9l2.3,0c0,0,0-0.1,0-0.1
	c0,0,0-0.1,0-0.2c0-0.4-0.1-0.6-0.2-0.8c-0.2-0.2-0.4-0.3-0.7-0.3c-0.3,0-0.6,0.1-0.8,0.4C176.1,126.1,175.9,126.5,175.8,126.9z
	 M168.9,129.8l0.9-0.8c0.2,0.3,0.5,0.5,0.7,0.6c0.2,0.1,0.4,0.2,0.7,0.2c0.3,0,0.5-0.1,0.7-0.2c0.2-0.1,0.3-0.3,0.3-0.6
	c0-0.3-0.3-0.6-0.9-0.9c-0.1-0.1-0.2-0.1-0.3-0.1c-0.4-0.2-0.8-0.5-0.9-0.7c-0.2-0.3-0.3-0.6-0.3-1c0-0.5,0.2-1,0.6-1.3
	c0.4-0.3,0.9-0.5,1.4-0.5c0.5,0,0.9,0.1,1.2,0.3c0.4,0.2,0.6,0.5,0.9,0.8l-1,0.6c-0.2-0.2-0.3-0.4-0.5-0.5c-0.2-0.1-0.4-0.2-0.6-0.2
	c-0.2,0-0.4,0.1-0.5,0.2c-0.1,0.1-0.2,0.3-0.2,0.5c0,0.3,0.3,0.5,0.8,0.8c0,0,0.1,0,0.1,0.1c0.6,0.3,1,0.6,1.2,0.9
	c0.2,0.3,0.3,0.6,0.3,1c0,0.6-0.2,1.1-0.6,1.5c-0.4,0.4-0.9,0.6-1.6,0.6c-0.4,0-0.9-0.1-1.2-0.3
	C169.5,130.4,169.2,130.2,168.9,129.8z M161.9,130.8l1.1-5.1h-0.9l0.2-1.1h0.9l0.2-0.7c0.2-0.7,0.4-1.2,0.7-1.5
	c0.3-0.3,0.8-0.4,1.4-0.4c0.2,0,0.3,0,0.5,0c0.2,0,0.3,0,0.4,0.1l-0.3,1.2c-0.1,0-0.2,0-0.3-0.1c-0.1,0-0.2,0-0.3,0
	c-0.2,0-0.4,0.1-0.5,0.2c-0.1,0.1-0.2,0.3-0.3,0.6l-0.1,0.6h1l-0.3,1.1h-0.9l-1.1,5.1H161.9z M156,128.4c0-1.2,0.3-2.1,0.8-2.8
	s1.2-1.1,2.1-1.1c0.7,0,1.3,0.2,1.7,0.7c0.4,0.4,0.6,1,0.6,1.8c0,0.5-0.1,1.1-0.2,1.6c-0.2,0.5-0.4,1-0.7,1.4
	c-0.2,0.3-0.5,0.6-0.9,0.7c-0.3,0.2-0.7,0.3-1.2,0.3c-0.8,0-1.3-0.2-1.7-0.7C156.2,129.8,156,129.2,156,128.4z M158.9,125.6
	c-0.2,0-0.4,0-0.5,0.1c-0.2,0.1-0.3,0.2-0.4,0.4c-0.2,0.3-0.3,0.6-0.4,1s-0.2,0.8-0.2,1.2c0,0.4,0.1,0.7,0.2,0.9
	c0.1,0.2,0.4,0.3,0.7,0.3c0.2,0,0.4-0.1,0.6-0.2c0.2-0.1,0.3-0.3,0.4-0.5c0.2-0.3,0.3-0.7,0.4-1.1c0.1-0.4,0.1-0.8,0.1-1.1
	c0-0.4-0.1-0.7-0.2-0.8C159.4,125.7,159.2,125.6,158.9,125.6z M146.4,132.9l0.3-1.2c0.1,0,0.2,0.1,0.3,0.1c0.1,0,0.2,0,0.2,0
	c0.2,0,0.4-0.1,0.6-0.2s0.3-0.3,0.4-0.6l0.2-0.5l-0.9-6.1h1.4l0.5,4.1l1.6-4.1h1.5l-2.5,5.7c-0.2,0.6-0.5,1-0.6,1.3
	c-0.2,0.3-0.3,0.6-0.5,0.7c-0.2,0.2-0.4,0.4-0.7,0.5s-0.6,0.2-1,0.2c-0.1,0-0.3,0-0.4,0C146.6,133,146.5,133,146.4,132.9z
	 M143.8,125.7l0.3-1.1h0.8l0.4-2h1.5l-0.4,2h0.9l-0.3,1.1H146l-0.7,3c0,0.1,0,0.2,0,0.3c0,0.1,0,0.2,0,0.3c0,0.2,0,0.3,0.1,0.3
	c0.1,0.1,0.2,0.1,0.4,0.1c0.1,0,0.2,0,0.3,0c0.1,0,0.2,0,0.3,0l-0.3,1.2c-0.1,0-0.1,0-0.2,0c-0.3,0-0.5,0.1-0.6,0.1
	c-0.5,0-0.8-0.1-1.1-0.3s-0.4-0.5-0.4-1c0-0.1,0-0.2,0-0.4c0-0.2,0.1-0.4,0.1-0.6l0.6-2.9H143.8z M140.2,130.8l1.4-6.2h1.4l-1.4,6.2
	H140.2z M141.9,123.4l0.3-1.3h1.4l-0.3,1.3H141.9z M137.1,130.8l1.9-8.7h1.5l-1.9,8.7H137.1z M134.4,130.8v-0.5
	c-0.3,0.2-0.6,0.3-0.9,0.4s-0.5,0.1-0.8,0.1c-0.4,0-0.8-0.2-1-0.5c-0.3-0.3-0.4-0.7-0.4-1.1c0-0.7,0.3-1.3,0.8-1.6
	c0.6-0.4,1.5-0.7,3-0.9c0-0.1,0.1-0.2,0.1-0.3c0-0.1,0-0.1,0-0.2c0-0.2-0.1-0.4-0.2-0.5c-0.1-0.1-0.4-0.2-0.6-0.2s-0.5,0-0.7,0.1
	c-0.2,0.1-0.4,0.3-0.6,0.5l-0.9-0.7c0.3-0.3,0.6-0.6,1-0.7c0.4-0.2,0.8-0.3,1.3-0.3c0.7,0,1.2,0.2,1.6,0.5c0.4,0.3,0.6,0.7,0.6,1.3
	c0,0.1,0,0.2,0,0.3c0,0.1,0,0.3-0.1,0.4l-0.5,2.3c-0.1,0.3-0.1,0.6-0.1,0.8c0,0.2-0.1,0.5-0.1,0.6v0.1H134.4z M134.5,129.2l0.3-1.4
	c-0.8,0.1-1.4,0.3-1.7,0.5c-0.3,0.2-0.5,0.5-0.5,0.8c0,0.2,0.1,0.4,0.2,0.5c0.1,0.1,0.3,0.2,0.5,0.2c0.2,0,0.4,0,0.6-0.1
	C134.1,129.5,134.3,129.4,134.5,129.2z M131.1,124.6l-1.4,6.2h-1.4l0.1-0.6c-0.3,0.2-0.6,0.4-0.9,0.5c-0.3,0.1-0.6,0.2-0.8,0.2
	c-0.5,0-0.9-0.1-1.1-0.4c-0.3-0.3-0.4-0.7-0.4-1.1c0-0.1,0-0.2,0-0.4c0-0.2,0.1-0.3,0.1-0.5l0.8-3.8h1.4l-0.9,3.8
	c0,0.2-0.1,0.3-0.1,0.4c0,0.1,0,0.2,0,0.3c0,0.2,0.1,0.3,0.2,0.4c0.1,0.1,0.3,0.1,0.5,0.1c0.1,0,0.2,0,0.4,0c0.1,0,0.3-0.1,0.4-0.2
	c0.1,0,0.2-0.1,0.3-0.2c0.1-0.1,0.2-0.2,0.3-0.2l1-4.6H131.1z M121.3,133l0.6-2.8c-0.2,0.2-0.5,0.4-0.8,0.5
	c-0.3,0.1-0.5,0.2-0.8,0.2c-0.6,0-1-0.2-1.3-0.7c-0.3-0.5-0.5-1.1-0.5-1.8c0-0.6,0.1-1.1,0.2-1.6c0.2-0.5,0.4-0.9,0.7-1.3
	c0.3-0.3,0.6-0.6,0.9-0.8c0.3-0.2,0.7-0.3,1-0.3c0.4,0,0.7,0.1,1,0.2c0.3,0.2,0.5,0.4,0.7,0.7l0.4-0.9h1.1l-1.9,8.5H121.3z
	 M122.2,129l0.6-2.6c-0.1-0.2-0.2-0.4-0.4-0.6c-0.2-0.1-0.4-0.2-0.7-0.2c-0.5,0-0.9,0.3-1.2,0.8s-0.5,1.3-0.5,2.1
	c0,0.4,0.1,0.6,0.2,0.8c0.2,0.2,0.4,0.3,0.7,0.3c0.2,0,0.4-0.1,0.6-0.2C121.7,129.4,122,129.2,122.2,129z M109,132.9l0.3-1.2
	c0.1,0,0.2,0.1,0.3,0.1c0.1,0,0.2,0,0.2,0c0.2,0,0.4-0.1,0.6-0.2c0.1-0.1,0.3-0.3,0.4-0.6l0.2-0.5l-0.9-6.1h1.4l0.5,4.1l1.6-4.1h1.5
	l-2.5,5.7c-0.2,0.6-0.5,1-0.6,1.3c-0.2,0.3-0.3,0.6-0.5,0.7c-0.2,0.2-0.4,0.4-0.7,0.5c-0.2,0.1-0.6,0.2-1,0.2c-0.1,0-0.3,0-0.4,0
	C109.2,133,109.1,133,109,132.9z M105.4,130.8l1.4-6.2h1.4l-0.2,1c0.2-0.4,0.4-0.6,0.7-0.8c0.2-0.2,0.5-0.3,0.8-0.3
	c0.1,0,0.2,0,0.3,0c0,0,0.1,0,0.1,0l-0.3,1.5c0,0,0,0-0.1,0c0,0-0.1,0-0.1,0c-0.3,0-0.6,0.1-0.8,0.2c-0.2,0.2-0.5,0.4-0.7,0.8
	l-0.8,3.8H105.4z M102.7,130.8v-0.5c-0.3,0.2-0.6,0.3-0.9,0.4c-0.3,0.1-0.5,0.1-0.8,0.1c-0.4,0-0.8-0.2-1-0.5
	c-0.3-0.3-0.4-0.7-0.4-1.1c0-0.7,0.3-1.3,0.8-1.6c0.6-0.4,1.5-0.7,2.9-0.9c0-0.1,0.1-0.2,0.1-0.3c0-0.1,0-0.1,0-0.2
	c0-0.2-0.1-0.4-0.2-0.5c-0.1-0.1-0.4-0.2-0.6-0.2c-0.3,0-0.5,0-0.7,0.1c-0.2,0.1-0.4,0.3-0.6,0.5l-0.9-0.7c0.3-0.3,0.6-0.6,1-0.7
	c0.4-0.2,0.8-0.3,1.3-0.3c0.7,0,1.2,0.2,1.6,0.5c0.4,0.3,0.6,0.7,0.6,1.3c0,0.1,0,0.2,0,0.3c0,0.1,0,0.3-0.1,0.4l-0.5,2.3
	c-0.1,0.3-0.1,0.6-0.1,0.8c0,0.2-0.1,0.5-0.1,0.6v0.1H102.7z M102.8,129.2l0.3-1.4c-0.8,0.1-1.4,0.3-1.7,0.5
	c-0.3,0.2-0.5,0.5-0.5,0.8c0,0.2,0.1,0.4,0.2,0.5c0.1,0.1,0.3,0.2,0.5,0.2c0.2,0,0.4,0,0.6-0.1C102.4,129.5,102.6,129.4,102.8,129.2
	z M93.1,130.8l1.4-6.2h1.4l-0.1,0.6c0.3-0.2,0.6-0.4,0.9-0.5c0.3-0.1,0.6-0.2,0.8-0.2c0.5,0,0.9,0.1,1.1,0.4
	c0.3,0.3,0.4,0.7,0.4,1.2c0,0.1,0,0.2,0,0.4c0,0.2-0.1,0.3-0.1,0.5l-0.8,3.8h-1.4l0.8-3.8c0-0.2,0.1-0.3,0.1-0.5c0-0.1,0-0.2,0-0.3
	c0-0.2,0-0.3-0.1-0.4c-0.1-0.1-0.3-0.1-0.5-0.1c-0.2,0-0.4,0.1-0.7,0.2c-0.2,0.1-0.5,0.3-0.8,0.5l-1,4.5H93.1z M90.1,130.8l1.4-6.2
	h1.4l-1.4,6.2H90.1z M91.7,123.4l0.3-1.3h1.4l-0.3,1.3H91.7z M87.2,130.8l0.2-0.7c-0.2,0.3-0.5,0.5-0.8,0.6
	c-0.3,0.1-0.6,0.2-0.9,0.2c-0.6,0-1-0.2-1.3-0.7c-0.3-0.5-0.5-1.1-0.5-1.8c0-0.6,0.1-1.1,0.2-1.6c0.2-0.5,0.4-0.9,0.7-1.3
	c0.3-0.3,0.6-0.6,0.9-0.8c0.3-0.2,0.7-0.3,1-0.3c0.4,0,0.7,0.1,1,0.2c0.3,0.2,0.5,0.4,0.6,0.7l0.7-3.3h1.5l-1.9,8.7H87.2z M87.5,129
	l0.6-2.6c-0.1-0.2-0.2-0.4-0.4-0.6c-0.2-0.1-0.4-0.2-0.7-0.2c-0.5,0-0.9,0.3-1.2,0.8c-0.3,0.6-0.5,1.3-0.5,2.1
	c0,0.4,0.1,0.6,0.2,0.8c0.2,0.2,0.4,0.3,0.7,0.3c0.2,0,0.4-0.1,0.6-0.2C87,129.4,87.2,129.2,87.5,129z M79.8,130.8l1.4-6.2h1.4
	l-0.2,1c0.2-0.4,0.4-0.6,0.7-0.8c0.2-0.2,0.5-0.3,0.8-0.3c0.1,0,0.2,0,0.3,0c0,0,0.1,0,0.1,0l-0.3,1.5c0,0,0,0-0.1,0
	c0,0-0.1,0-0.1,0c-0.3,0-0.6,0.1-0.8,0.2c-0.2,0.2-0.5,0.4-0.7,0.8l-0.8,3.8H79.8z M74.1,128.4c0-1.2,0.3-2.1,0.8-2.8
	c0.5-0.7,1.2-1.1,2.1-1.1c0.7,0,1.3,0.2,1.7,0.7c0.4,0.4,0.6,1,0.6,1.8c0,0.5-0.1,1.1-0.2,1.6c-0.2,0.5-0.4,1-0.7,1.4
	c-0.2,0.3-0.5,0.6-0.9,0.7c-0.3,0.2-0.7,0.3-1.2,0.3c-0.8,0-1.3-0.2-1.7-0.7C74.3,129.8,74.1,129.2,74.1,128.4z M77,125.6
	c-0.2,0-0.4,0-0.5,0.1c-0.2,0.1-0.3,0.2-0.4,0.4c-0.2,0.3-0.3,0.6-0.4,1c-0.1,0.4-0.2,0.8-0.2,1.2c0,0.4,0.1,0.7,0.2,0.9
	c0.1,0.2,0.4,0.3,0.7,0.3c0.2,0,0.4-0.1,0.6-0.2c0.2-0.1,0.3-0.3,0.4-0.5c0.2-0.3,0.3-0.7,0.4-1.1c0.1-0.4,0.1-0.8,0.1-1.1
	c0-0.4-0.1-0.7-0.2-0.8C77.6,125.7,77.3,125.6,77,125.6z M71.2,130.8v-0.5c-0.3,0.2-0.6,0.3-0.9,0.4c-0.3,0.1-0.5,0.1-0.8,0.1
	c-0.4,0-0.8-0.2-1-0.5c-0.3-0.3-0.4-0.7-0.4-1.1c0-0.7,0.3-1.3,0.8-1.6c0.6-0.4,1.5-0.7,2.9-0.9c0-0.1,0.1-0.2,0.1-0.3
	c0-0.1,0-0.1,0-0.2c0-0.2-0.1-0.4-0.2-0.5c-0.1-0.1-0.4-0.2-0.6-0.2c-0.3,0-0.5,0-0.7,0.1c-0.2,0.1-0.4,0.3-0.6,0.5l-0.9-0.7
	c0.3-0.3,0.6-0.6,1-0.7c0.4-0.2,0.8-0.3,1.3-0.3c0.7,0,1.2,0.2,1.6,0.5c0.4,0.3,0.6,0.7,0.6,1.3c0,0.1,0,0.2,0,0.3
	c0,0.1,0,0.3-0.1,0.4l-0.5,2.3c-0.1,0.3-0.1,0.6-0.1,0.8c0,0.2,0,0.5,0,0.6v0.1H71.2z M71.3,129.2l0.3-1.4c-0.8,0.1-1.4,0.3-1.7,0.5
	c-0.3,0.2-0.5,0.5-0.5,0.8c0,0.2,0.1,0.4,0.2,0.5c0.1,0.1,0.3,0.2,0.5,0.2c0.2,0,0.4,0,0.6-0.1C70.9,129.5,71.1,129.4,71.3,129.2z
	 M64.2,130.8l1.4-6.2h1.4l-0.2,1c0.2-0.4,0.4-0.6,0.7-0.8c0.2-0.2,0.5-0.3,0.8-0.3c0.1,0,0.2,0,0.3,0c0,0,0.1,0,0.1,0l-0.3,1.5
	c0,0,0,0-0.1,0c0,0-0.1,0-0.1,0c-0.3,0-0.6,0.1-0.8,0.2c-0.2,0.2-0.5,0.4-0.7,0.8l-0.8,3.8H64.2z M61,125.7l0.3-1.1H62l0.4-2h1.5
	l-0.4,2h0.9l-0.3,1.1h-0.9l-0.7,3c0,0.1,0,0.2,0,0.3c0,0.1,0,0.2,0,0.3c0,0.2,0,0.3,0.1,0.3c0.1,0.1,0.2,0.1,0.4,0.1
	c0.1,0,0.2,0,0.3,0c0.1,0,0.2,0,0.3,0l-0.3,1.2c-0.1,0-0.1,0-0.2,0c-0.3,0-0.5,0.1-0.6,0.1c-0.5,0-0.8-0.1-1.1-0.3s-0.4-0.5-0.4-1
	c0-0.1,0-0.2,0-0.4c0-0.2,0.1-0.4,0.1-0.6l0.6-2.9H61z M54.9,130.8l2.2-3.3l-1.1-2.9h1.4l0.6,1.7l1-1.7h1.5l-1.9,3l1.2,3.2h-1.4
	l-0.7-2l-1.2,2H54.9z M53.5,129l1.1,0.7c-0.3,0.4-0.6,0.7-1,0.9c-0.4,0.2-0.9,0.3-1.3,0.3c-0.7,0-1.3-0.2-1.7-0.7
	c-0.4-0.4-0.6-1.1-0.6-1.9c0-1.2,0.3-2.1,0.8-2.8c0.5-0.7,1.2-1.1,2.1-1.1c0.7,0,1.2,0.2,1.6,0.7c0.4,0.4,0.6,1,0.6,1.8
	c0,0.1,0,0.2,0,0.4c0,0.2,0,0.4,0,0.6l-3.7,0c0,0.1,0,0.2-0.1,0.3c0,0.1,0,0.2,0,0.2c0,0.4,0.1,0.8,0.3,1c0.2,0.2,0.4,0.3,0.8,0.3
	c0.2,0,0.5-0.1,0.7-0.2C53.1,129.4,53.3,129.2,53.5,129z M51.4,126.9l2.3,0c0,0,0-0.1,0-0.1c0,0,0-0.1,0-0.2c0-0.4-0.1-0.6-0.2-0.8
	c-0.2-0.2-0.4-0.3-0.7-0.3c-0.3,0-0.6,0.1-0.8,0.4C51.7,126.1,51.5,126.5,51.4,126.9z"/>
<path class="st1" d="M143.1,58.2c0.3-1.2,0.7-2.4,1-3.7c0.3-1.1,0.9-1.8,2.4-1.8c1.6,0,2,0.8,1.7,1.9c-0.2,0.6-0.3,1.3-0.5,1.9
	c-0.4,1.2-1.1,1.6-2,1.6C144.9,58.3,144,58.3,143.1,58.2 M123.6,57c2.8-8.5,8.7-13.9,19.5-14c3,0,6,0,8.9,0c9.3,0.3,15,4,12.7,12.9
	l-1.4,4.8c-0.5,1.8-1.1,3-2,3.8c-1,0.8-2.6,1.1-4.1,1.1l-15.8,0l-0.9,3.5c-0.5,2.1,1.2,2.4,3.1,2.5c3.7,0.2,7.3,0.2,11,0
	c1.4-0.1,2.8-0.3,4.1-2.5h1.9c-0.6,2.4-1.3,4.9-1.9,7.3c-1.1,5-4.9,6.9-10.5,6.9c-5.1,0-10.1,0-15.2,0c-4.5,0-7.7-0.5-9.7-2.1
	c-3.2-2.5-3.7-7.3-2.1-14.1C121.9,63.9,122.7,60.4,123.6,57z M171.8,43.1c-0.1,0.6-0.3,1.1-0.4,1.7c2.1,0.3,2.7,1.5,2.1,3.8
	c-2.5,10.2-5,20.5-7.6,30.7c-0.7,2.6-0.4,4.4,3.2,4.1l18.7,0l0.5-1.7c-1.6-0.2-2.6-1.4-1.9-4.4l5.5-21.8c0.2-1.1,0.8-1.8,1.2-2.1
	c0.7-0.5,1.4-0.5,1.9-0.5c0.4,0,1.3,0,1.6,0.7c0.2,0.4,0.2,1-0.1,1.9c-1.9,7.9-3.9,15.9-5.8,23.8c-0.5,1.7-0.4,2.5-0.1,3.2
	c0.5,0.9,1.7,1,2.6,1c6.4,0,13,0,19.4,0l0.5-1.7c-2.5-0.3-2.5-2.6-1.7-5.6c2-8.3,4.1-16.6,6.1-24.9c0.6-2.3,0.6-5.1-1.1-6.8
	c-1.1-1-2.9-1.7-6-1.8c-2.6,0-3.9,0-6.5,0c-2.4,0-4.2,0.4-5.7,1.2c-1.6,0.9-2.7,2.4-4.4,4.4c-0.2,0-0.6,0-0.8,0
	c0.9-3.2,0.1-5.1-3.8-5.2L171.8,43.1z M103,31.9c-0.4,1.5-0.7,2.9-1.1,4.4c-0.7,2.9,0.5,4.2,3.3,4.1c5.2,0,10.5,0,15.7,0
	c0.4-1.5,0.7-3,1.1-4.6c0.3-1.6-0.1-2.8-0.8-3.4c-0.5-0.4-1.3-0.6-2.3-0.6C113.6,31.9,108.3,31.9,103,31.9z M91.9,77
	c-0.6,2-1,3.7-0.8,4.7c0.2,1.3,1.5,1.7,3.1,1.7h19.1l0.5-1.7c-2.1-0.3-2.6-2.1-1.9-4.7c2.4-9.9,4.9-19.8,7.3-29.7
	c0.8-2.5,0.4-4.2-2.7-4.2c-6.4,0-12.8,0-19.3,0c-0.1,0.6-0.3,1.1-0.4,1.7c2.3,0.7,2.5,2.4,1.8,4.7C96.5,58.6,94.2,67.8,91.9,77z
	 M17.6,17.1c2.9,0.5,4.6,2.4,5.2,5.2c6.5,25.4,13,50.9,19.5,76.3c1.5,7,3.7,9.1,9.1,9c6.8,0,14.1,0,20.9,0
	c4.8-18.8,9.2-37.5,14.1-56.3c2.2-9.1,4.5-18.1,6.7-27.2c1.5-5.5-0.5-10.1-6-10.1c-7.5,0-15.1,0-22.6,0c0,1,0,2.1,0,3.1
	c3.2,1.2,4.1,3.7,3.7,7.1l-6.7,30.9l-6-33.8c-0.5-4.4-2.4-7.3-7.3-7.3c-10.2,0-20.4,0-30.6,0C17.6,15.1,17.6,16.1,17.6,17.1z
	 M197,104.1c0.5-2,1.1-3.9,1.6-5.9c0.2-0.4,0.5-0.8,1.5-0.8c0.9,0,1.1,0.3,1,1c-0.4,1.6-0.9,3.2-1.3,4.8c-0.2,0.6-0.7,0.9-1.5,0.9
	C197.8,104.1,197.4,104.1,197,104.1z M210.4,94.3c1.2,0.9,1.4,2.4,0.9,4.1c-0.5,1.8-1.1,3.7-1.6,5.5c-1,3.1-4,3.9-7.8,3.8
	c-2,0-3.9,0-5.9,0c-0.2,0.7-0.4,1.5-0.5,2.2c-0.2,0.8,0.2,1.3,1.2,1.4l-0.2,0.6l-10,0c-0.7,0-1.1-0.1-1.3-0.4
	c-0.2-0.4-0.1-1,0.2-1.9c1.3-4.5,2.5-9.1,3.8-13.6c0.4-1,0-1.6-1-1.7c0.1-0.2,0.1-0.4,0.2-0.6c3.4,0,6.7,0,10.1,0
	c1.4,0,1.5,0.8,1.1,1.9c0.1,0,0.3,0,0.4,0c1.5-1.6,2.8-2,5.6-2C208,93.4,209.5,93.6,210.4,94.3z M146,97.7c-0.5,1.8-1,3.6-1.5,5.5
	c-0.2,0.7,0,1.1,0.8,1.1c0.9,0,1.3-0.2,1.5-1.1c0.5-1.7,1-3.5,1.5-5.2c0.2-0.6-0.1-0.9-0.9-1C146.6,96.9,146.2,97.2,146,97.7z
	 M143.3,93.6c3.3,0,6.6,0,9.9,0c4.6,0,5.6,2,5.2,4.6c-0.4,1.6-0.8,3.1-1.2,4.7c-0.5,1.6-1.3,2.8-2.4,3.6c-1.2,0.9-2.9,1.3-4.8,1.2
	c-3.6,0-7.1,0-10.7,0c-3.8,0-5.7-1.8-5-5.3c0.4-1.4,0.8-2.9,1.2-4.3C136.8,95.3,139,93.6,143.3,93.6z M173.6,94.2
	c1,0,1.3,0.6,1.1,1.6l-2.1,7.5c-0.3,0.7-0.8,1-1.5,1c-0.9,0-1.1-0.4-0.9-1.3l2.1-7.6c0.5-1.4,0.4-1.8-2-1.8h-9.2
	c-0.1,0.2-0.1,0.4-0.2,0.6c1,0,1.3,0.6,1.1,1.6c-1,3.4-1.7,5.9-2.6,9.2c-0.4,1.3,0.7,2.6,2.5,2.6h5.2c1.5,0,2.8,0,4.7-1.9l0.5,0
	c-0.5,1.4,0.6,1.9,2.4,1.9h5.2h3.5l0.2-0.6c-0.9,0-1.4-0.4-1-1.9l2.7-9.7c0.5-1.4,0.3-1.8-2-1.8h-9.2
	C173.8,93.8,173.7,94,173.6,94.2z M116.2,94.2c1,0,1.3,0.6,1.1,1.6c-1,3.4-1.9,6.7-2.9,10.1c-0.4,1.3,0.1,1.8,1.9,1.8
	c3.1,0,6.3,0,9.4,0c0.1-0.2,0.1-0.4,0.2-0.6c-0.9-0.2-1.3-0.5-1.2-1.4c0.6-2.2,1.2-4.4,1.9-6.6c0.3-0.8,1-1,2-1c0.8,0,1.5,0,2.3,0
	c1.4,0,2.6-0.2,3.2-1.6c0.3-1,0.5-1.9,0.8-2.9c-1.2,0-2.5,0-3.7,0c-1.5,0-2.5,0.8-3.4,2c-0.1,0-0.3,0-0.4,0c0.4-1.1,0-1.9-1.6-1.9
	c-3.1,0-6.2,0-9.2,0C116.4,93.8,116.3,94,116.2,94.2z M112.1,89.7c-5.6,0-11.3,0-16.9,0c-3.9,0-6.4,1.7-7.4,4.5
	c-0.7,2.6-1.4,5.2-2.1,7.8c-1.2,4.6,2.6,5.7,8.1,5.7c2.8,0,5.6,0,8.4,0c3.6,0.1,6.9-0.4,7.9-3.8c0.5-2,1.1-4.1,1.6-6.1
	c0.4-1.4-0.3-2.1-2.1-2.1c-3,0-6,0-9,0c-0.3,0.9-0.6,1.9-0.9,2.8c-0.2,0.6,0,0.8,0.4,0.8c0.3,0,0.5,0.1,0.4,0.4
	c-0.3,1-0.5,1.9-0.8,2.9c-0.2,0.4-0.5,0.7-1,0.8c-0.4,0.1-1.1,0.1-1.4,0c-0.5-0.2-0.6-0.5-0.5-1.2c0.7-2.5,1.4-5,2.2-7.4
	c0.3-0.7,0.9-1.2,1.8-1.2c2.6,0,5.2,0,7.8,0C110.5,93.6,111.9,92.8,112.1,89.7z"/>
</svg>
